<svg width="196" height="46" viewBox="0 0 196 46" fill="none" xmlns="http://www.w3.org/2000/svg">
<path d="M23.5148 8.32632L23.5126 8.32479L15.6465 13.1447L23.5126 17.9648L27.3445 15.6169L27.5618 15.4828C27.5721 15.4777 27.5824 15.4725 27.593 15.4643C28.7211 14.7368 29.6642 13.7158 30.3274 12.5C30.996 11.2706 31.3795 9.8462 31.3795 8.32632C31.3795 6.80609 30.996 5.37784 30.3274 4.15137L23.5148 8.32632Z" fill="url(#paint0_linear_450_1627)"/>
<path d="M4.0573 29.9776C4.05215 29.9791 4.04872 29.9836 4.04323 29.9857C4.03952 29.9873 4.03843 29.9888 4.03527 29.9912L3.81764 30.1251C3.80679 30.1303 3.79732 30.1372 3.7862 30.1436C2.65831 30.8714 1.71552 31.8939 1.05233 33.1085C0.384063 34.3352 0 35.7632 0 37.2834C0 38.8033 0.384063 40.2319 1.05233 41.4589L15.7326 32.4635L7.86636 27.6431L4.0573 29.9776Z" fill="url(#paint1_linear_450_1627)"/>
<path d="M1.03291 13.8235C0.456126 14.8794 0.0926528 16.0834 0 17.3653V18.6528C0.0926528 19.9356 0.456126 21.1387 1.03291 22.1946C1.62341 23.2796 2.43725 24.2102 3.40811 24.9155L4.47389 25.5702L7.86636 27.6482L15.7326 32.4687L1.05233 41.4641C1.71552 42.6784 2.65831 43.7006 3.7862 44.429C3.79732 44.4365 3.80679 44.4414 3.81764 44.4472L4.03527 44.5822C5.16824 45.2547 6.47567 45.6371 7.86636 45.6371C9.24984 45.6371 10.5504 45.2575 11.6788 44.5928L27.648 34.8062C27.6583 34.8011 27.6686 34.7962 27.6792 34.7889C28.8073 34.0602 29.7504 33.0381 30.4136 31.8235L1.0349 13.8223C1.03291 13.8223 1.03291 13.8223 1.03291 13.8235Z" fill="url(#paint2_linear_450_1627)"/>
<path d="M19.6879 1.05647L4.3959 10.4261L3.33554 11.0762C3.3332 11.0777 3.33005 11.0799 3.32833 11.0817C2.35754 11.7864 1.54562 12.7157 0.955115 13.8016C0.953125 13.8016 0.953125 13.8016 0.953125 13.8028L30.3338 31.8028C31.0023 30.5748 31.3859 29.1489 31.3859 27.6275C31.3859 26.1076 31.0023 24.6796 30.3338 23.4523C29.6706 22.238 28.7275 21.2155 27.5994 20.488C27.5888 20.4804 27.5785 20.475 27.5682 20.468L23.519 17.9872L15.6529 13.167L23.5181 8.34867H23.5212L30.3338 4.17372C29.6706 2.95759 28.7275 1.93666 27.5994 1.20885L27.34 1.051C26.2088 0.381826 24.9065 0 23.519 0C22.1286 0 20.8215 0.382991 19.6879 1.05647Z" fill="url(#paint3_linear_450_1627)"/>
<path d="M42.6957 21.5798C43.0472 21.9911 43.4701 22.3274 43.9282 22.6263C44.7372 23.1866 45.8636 23.6351 47.2725 23.6351C48.8568 23.6351 49.3849 23.0746 49.3849 22.3274C49.3849 20.2723 40.5827 20.646 40.5827 14.6673C40.5827 11.6782 43.0472 9.06201 47.4482 9.06201C49.6667 9.06201 51.3212 9.7722 52.448 10.4824C53.1168 10.8933 53.6802 11.379 54.138 11.8648L51.3212 15.0406C51.0393 14.7794 50.6878 14.5177 50.3004 14.2937C49.6312 13.8825 48.6804 13.5462 47.4482 13.5462C46.2162 13.5462 45.6883 14.1065 45.6883 14.6673C45.6883 16.7224 54.49 16.349 54.49 22.3274C54.49 25.4662 52.0255 28.1194 47.2725 28.1194C44.8782 28.1194 43.0471 27.2974 41.7803 26.4376C41.0405 25.9517 40.4071 25.3915 39.8789 24.7563L42.6957 21.5798Z" fill="white"/>
<path d="M57.0527 9.41699H61.8058V19.6926C61.8058 21.9348 63.0028 23.2426 64.9748 23.2426C67.087 23.2426 68.6715 21.5609 68.6715 19.1323V9.41699H73.4246V27.7268H68.6715V25.1109H68.4951C68.1081 25.6712 67.6861 26.1571 67.1925 26.6056C66.3475 27.3528 65.0449 28.1004 63.3903 28.1004C59.8694 28.1004 57.0527 25.1109 57.0527 20.4403V9.41699Z" fill="white"/>
<path d="M77.2812 9.43597H82.0343V12.0515H82.2098C82.5267 11.4909 82.879 11.0054 83.3368 10.557C84.1467 9.80957 85.2731 9.06201 86.9632 9.06201C88.7942 9.06201 90.0965 9.88452 90.9064 10.6691C91.3645 11.1176 91.7514 11.6405 92.0685 12.2385H92.2444C92.6322 11.6405 93.1243 11.1176 93.6877 10.6691C94.6385 9.88452 96.0117 9.06201 97.8773 9.06201C101.257 9.06201 103.863 11.8649 103.863 16.349V27.7458H99.1098V17.0959C99.1098 15.0036 98.0887 13.9198 96.2931 13.9198C94.3219 13.9198 92.9487 15.4146 92.9487 17.6565V27.7458H88.1954V17.0959C88.1954 15.0036 87.1745 13.9198 85.3786 13.9198C83.4074 13.9198 82.0343 15.4146 82.0343 17.6565V27.7458H77.2812V9.43597Z" fill="white"/>
<path d="M107.811 9.43597H112.564V12.0515H112.74C113.057 11.4909 113.409 11.0054 113.867 10.557C114.676 9.80957 115.803 9.06201 117.493 9.06201C119.324 9.06201 120.627 9.88452 121.436 10.6691C121.893 11.1176 122.282 11.6405 122.598 12.2385H122.774C123.161 11.6405 123.654 11.1176 124.218 10.6691C125.168 9.88452 126.541 9.06201 128.407 9.06201C131.788 9.06201 134.392 11.8649 134.392 16.349V27.7458H129.64V17.0959C129.64 15.0036 128.619 13.9198 126.823 13.9198C124.851 13.9198 123.478 15.4146 123.478 17.6565V27.7458H118.726V17.0959C118.726 15.0036 117.704 13.9198 115.909 13.9198C113.937 13.9198 112.564 15.4146 112.564 17.6565V27.7458H107.811V9.43597Z" fill="white"/>
<path d="M150.061 16.7224C149.533 15.0406 148.16 13.5465 146.188 13.5465C144.216 13.5465 142.843 15.0406 142.315 16.7224H150.061ZM153.934 25.1302C153.406 25.6901 152.772 26.176 152.033 26.6246C150.765 27.3718 148.935 28.1193 146.54 28.1193C141.435 28.1193 137.387 23.822 137.387 18.5907C137.387 13.3596 141.435 9.06201 146.364 9.06201C151.117 9.06201 154.99 13.1729 154.99 18.217C154.99 18.9272 154.92 19.4125 154.884 19.8238L154.814 20.4593H142.315C142.843 22.1407 144.252 23.6354 146.892 23.6354C148.406 23.6354 149.498 23.1865 150.307 22.6266C150.765 22.3277 151.153 21.9911 151.47 21.5798L153.934 25.1302Z" fill="white"/>
<path d="M157.805 9.43597H162.558V12.0515H162.734C163.121 11.4909 163.543 11.0054 164.037 10.557C164.882 9.80957 166.149 9.06201 167.839 9.06201H168.191V14.4804L167.804 14.4058C167.522 14.3681 167.135 14.2937 166.606 14.2937C164.319 14.2937 162.558 16.1621 162.558 19.1513V27.7458H157.805V9.43597H157.805Z" fill="white"/>
<path d="M175.343 1.56885H170.59V27.7253H175.343V1.56885Z" fill="white"/>
<path d="M178.485 30.342C178.66 30.417 178.837 30.4919 179.048 30.5289C179.435 30.641 179.893 30.7159 180.421 30.7159C182.006 30.7159 182.886 29.7818 183.413 28.474L183.766 27.5398L177.076 9.41699H182.182L186.23 21.5609H186.406L190.279 9.41699H195.385L188.343 29.2215C186.899 33.3691 184.857 35.5735 181.654 35.5735C180.773 35.5735 179.963 35.4614 179.4 35.3118C179.083 35.1998 178.766 35.1248 178.485 35.0129V30.342Z" fill="white"/>
<path d="M39.8789 34.2584H41.0988V35.368C41.255 35.1276 41.4294 34.9239 41.6559 34.7206C42.0565 34.4062 42.6142 34.0732 43.4506 34.0732C44.4437 34.0732 45.1412 34.4803 45.5593 34.8684C45.8033 35.0903 45.9948 35.3495 46.1521 35.6448C46.3083 35.3495 46.5347 35.0903 46.7964 34.8684C47.2668 34.4803 47.9814 34.0732 49.0266 34.0732C50.8565 34.0732 52.2506 35.3862 52.2506 37.8643V43.1348H51.0307V37.8643C51.0307 36.1629 50.1765 35.2754 48.9395 35.2754C47.737 35.2754 46.6743 36.385 46.6743 38.2342V43.1348H45.4547V37.8643C45.4547 36.1814 44.601 35.2754 43.364 35.2754C42.1612 35.2754 41.0988 36.385 41.0988 38.2342V43.1348H39.8789V34.2584Z" fill="white"/>
<path d="M61.074 38.0493C60.8824 36.4772 59.7668 35.2751 58.2858 35.2751C56.7871 35.2751 55.6026 36.5698 55.4108 38.0493H61.074ZM61.8576 41.4704C61.6137 41.8219 61.3179 42.1178 60.9693 42.3952C60.3594 42.8571 59.5058 43.3197 58.3728 43.3197C56.0902 43.3197 54.1914 41.2856 54.1914 38.6965C54.1914 36.1076 56.1077 34.0732 58.2858 34.0732C60.5681 34.0732 62.2939 35.9221 62.2939 38.5116C62.2939 38.715 62.2585 38.8627 62.241 38.9923L62.2061 39.1772L55.4108 39.1587C55.4977 40.7308 56.7871 42.1178 58.3728 42.1178C59.2618 42.1178 59.9064 41.7478 60.3768 41.3781C60.6379 41.1563 60.8824 40.9153 61.074 40.6385L61.8576 41.4704Z" fill="white"/>
<path d="M70.5106 38.6816C70.5106 36.7401 69.0987 35.2605 67.6352 35.2605C66.0495 35.2605 64.7606 36.6661 64.7606 38.6816C64.7606 40.6975 66.0495 42.103 67.6352 42.103C69.0987 42.103 70.5106 40.6237 70.5106 38.6816ZM70.5106 41.8252C70.3187 42.103 70.075 42.3433 69.7959 42.5652C69.3081 42.9352 68.6112 43.3048 67.6352 43.3048C65.37 43.3048 63.541 41.3634 63.541 38.6816C63.541 36.0002 65.37 34.0584 67.6352 34.0584C68.6112 34.0584 69.3081 34.4281 69.7959 34.798C70.075 35.0202 70.3187 35.2605 70.5106 35.538V30.1748H71.7301V43.12H70.5106V41.8252Z" fill="white"/>
<path d="M74.2116 34.2195H75.4315V43.096H74.2116V34.2195ZM74.8215 30.4282C75.2573 30.4282 75.6056 30.7982 75.6056 31.2604C75.6056 31.7227 75.2573 32.0926 74.8215 32.0926C74.386 32.0926 74.0371 31.7227 74.0371 31.2604C74.0371 30.7982 74.386 30.4282 74.8215 30.4282Z" fill="white"/>
<path d="M82.9445 38.6042L80.0689 39.159C79.0233 39.3624 78.5012 39.8986 78.5012 40.7308C78.5012 41.4708 79.1112 42.1181 80.2433 42.1181C81.829 42.1181 82.9445 40.9345 82.9445 39.159V38.6042ZM82.9445 41.933C82.7701 42.1915 82.5436 42.432 82.282 42.6356C81.8115 42.9874 81.1498 43.32 80.2433 43.32C78.5012 43.32 77.2812 42.0252 77.2812 40.7308C77.2812 39.2516 78.1352 38.3265 79.7211 38.0494L82.9445 37.4949C82.9445 36.1814 82.0903 35.2755 80.8533 35.2755C80.1043 35.2755 79.5295 35.608 79.1283 35.9225C78.9018 36.1259 78.6928 36.3295 78.5012 36.5698L77.7171 35.7376C77.9435 35.4233 78.2218 35.1462 78.5358 34.9058C79.0757 34.4803 79.8249 34.0732 80.8533 34.0732C82.7701 34.0732 84.1645 35.5528 84.1645 37.4949V43.1349H82.9445V41.933Z" fill="white"/>
<defs>
<linearGradient id="paint0_linear_450_1627" x1="23.5128" y1="17.9648" x2="23.5128" y2="4.15129" gradientUnits="userSpaceOnUse">
<stop stop-color="#AF3EED"/>
<stop offset="0.4" stop-color="#CC2CE2"/>
<stop offset="1" stop-color="#E72FB6"/>
</linearGradient>
<linearGradient id="paint1_linear_450_1627" x1="7.86636" y1="41.4588" x2="7.86636" y2="27.6431" gradientUnits="userSpaceOnUse">
<stop stop-color="#AF3EED"/>
<stop offset="0.4" stop-color="#CC2CE2"/>
<stop offset="1" stop-color="#E72FB6"/>
</linearGradient>
<linearGradient id="paint2_linear_450_1627" x1="15.2069" y1="45.6372" x2="15.2069" y2="13.8221" gradientUnits="userSpaceOnUse">
<stop stop-color="#F9A603"/>
<stop offset="0.6" stop-color="#FB5C5D"/>
<stop offset="1" stop-color="#F73395"/>
</linearGradient>
<linearGradient id="paint3_linear_450_1627" x1="16.1695" y1="31.8029" x2="16.1695" y2="-0.000218704" gradientUnits="userSpaceOnUse">
<stop stop-color="#7C68F3"/>
<stop offset="0.4" stop-color="#26BCF6"/>
<stop offset="1" stop-color="#1CE9CE"/>
</linearGradient>
</defs>
</svg>
